:FULLY-SPECIFIED
:FORCE-ALL-JOINTS-BE-3DOF
:DEGREES
713
root 5.48876 21.3124 7.36357 -34.3394 -88.7695 50.9287
lfemur -35.2042 -11.6417 10.5441
ltibia 72.1529 -0 0
lfoot 7.13344 -8.65134 -0.0493869
ltoes 29.951 -0 0
rfemur -30.2897 -1.77132 -0.33896
rtibia 83.4544 -0 0
rfoot 20.8691 -19.8956 -0.043739
rtoes 37.7445 -0 0
lowerback 5.52398 -0.690323 -1.79796
upperback -1.42523 -1.14086 -1.65957
thorax -4.57377 -0.547191 -0.605302
lowerneck -6.93989 -6.22773 -2.0815
upperneck -0.0300621 -8.29807 4.78514
head 1.48118 -4.08036 1.56468
lclavicle -1.33186e-014 1.63003e-014 0
lhumerus 1.3483 -19.9464 15.7924
lradius 48.4572 -0 0
lwrist 24.4486 0 0
lhand -22.0767 -3.23552 0.00316619
lfingers 7.12502 -0 0
lthumb 4.3347 26.6981 0.00289639
rclavicle -1.33186e-014 1.63003e-014 0
rhumerus -12.5167 -3.69667 -25.4403
rradius 99.4155 -0 0
rwrist -9.56806 0 0
rhand -28.0764 -34.9489 0.11674
rfingers 7.12502 -0 0
rthumb -1.4593 -64.8886 0.11064
714
root 5.48044 21.3808 7.57825 -115.492 -88.6712 132.093
lfemur -34.4441 -12.9139 9.69286
ltibia 68.5091 -0 0
lfoot 7.45285 -9.38938 -0.0370366
ltoes 29.6084 -0 0
rfemur -31.6198 -1.89577 -1.10652
rtibia 89.7216 -0 0
rfoot 21.1565 -20.622 -0.0328012
rtoes 40.103 -0 0
lowerback 5.61874 -0.586321 -1.76053
upperback -1.41677 -1.00008 -1.62552
thorax -4.61897 -0.477319 -0.602088
lowerneck -6.94599 -6.35396 -2.23121
upperneck -0.210541 -8.45006 4.81228
head 1.43732 -4.15964 1.59409
lclavicle -1.33186e-014 1.63003e-014 0
lhumerus -0.296527 -19.9328 16.274
lradius 47.0543 -0 0
lwrist 23.7223 0 0
lhand -22.2676 -3.3147 0.00237463
lfingers 7.12502 -0 0
lthumb 4.15036 26.6231 0.00217228
rclavicle -1.33186e-014 1.63003e-014 0
rhumerus -11.6859 -2.84774 -26.2896
rradius 99.391 -0 0
rwrist -9.76997 0 0
rhand -27.2624 -34.2645 0.0875395
rfingers 7.12502 -0 0
rthumb -0.673217 -64.2169 0.0829664
715
root 5.47211 21.4493 7.79292 -141.712 -87.2483 158.325
lfemur -33.6607 -14.1748 8.81972
ltibia 64.8654 -0 0
lfoot 7.77207 -10.1273 -0.0205732
ltoes 29.2659 -0 0
rfemur -32.9481 -2.03798 -1.87105
rtibia 95.9888 -0 0
rfoot 21.4438 -21.3483 -0.0182206
rtoes 42.4616 -0 0
lowerback 5.71356 -0.482382 -1.72292
upperback -1.40821 -0.859303 -1.59146
thorax -4.66415 -0.407445 -0.59893
lowerneck -6.95176 -6.4802 -2.38094
upperneck -0.391164 -8.60197 4.83991
head 1.39341 -4.2389 1.62356
lclavicle -1.33186e-014 1.63003e-014 0
lhumerus -1.94097 -19.9062 16.7549
lradius 45.6513 -0 0
lwrist 22.9959 0 0
lhand -22.4585 -3.39388 0.00131923
lfingers 7.12502 -0 0
lthumb 3.96602 26.5481 0.00120681
rclavicle -1.33186e-014 1.63003e-014 0
rhumerus -10.8684 -1.98671 -27.126
rradius 99.3665 -0 0
rwrist -9.97189 0 0
rhand -26.4487 -33.5807 0.0486219
rfingers 7.12502 -0 0
rthumb 0.112483 -63.5457 0.0460824
716
root 5.46379 21.5177 8.00759 -149.464 -85.6489 166.089
lfemur -32.8528 -15.4238 7.92372
ltibia 61.2216 0 0
lfoot 8.09105 -10.8652 0
ltoes 28.9234 0 0
rfemur -34.2746 -2.19786 -2.63214
rtibia 102.256 0 0
rfoot 21.7308 -22.0746 0
rtoes 44.8201 0 0
lowerback 5.80845 -0.378505 -1.68514
upperback -1.39958 -0.71853 -1.55738
thorax -4.70934 -0.337568 -0.595827
lowerneck -6.9572 -6.60645 -2.53069
upperneck -0.571935 -8.75379 4.86803
head 1.34946 -4.31813 1.6531
lclavicle -1.33186e-014 1.63003e-014 0
lhumerus -3.58477 -19.8667 17.2347
lradius 44.2483 0 0
lwrist 22.2696 0 0
lhand -22.6494 -3.47306 0
lfingers 7.12502 0 0
lthumb 3.78168 26.4731 0
rclavicle -1.33186e-014 1.63003e-014 0
rhumerus -10.0638 -1.11393 -27.9496
rradius 99.342 0 0
rwrist -10.1738 0 0
rhand -25.6356 -32.8974 0
rfingers 7.12502 0 0
rthumb 0.897697 -782.875 0
717
root 5.42379 21.4244 8.22393 6.0393 -64.189 4.89737
lfemur -32.141 -15.9748 7.54271
ltibia 57.5761 -0 0
lfoot 8.61463 -11.6935 -0.0379396
ltoes 28.744 -0 0
rfemur -34.0146 -4.07453 -3.73132
rtibia 105.265 -0 0
rfoot 22.6021 -20.7435 0.101871
rtoes 44.4365 -0 0
lowerback 5.37844 -0.0319982 -1.5235
upperback -1.50574 -0.23472 -1.54636
thorax -4.56536 -0.101789 -0.696481
lowerneck -7.05779 -6.6787 -2.56848
upperneck -0.702205 -8.84426 4.80846
head 1.32656 -4.36657 1.63551
lclavicle 5.25785e-014 -7.15625e-015 0
lhumerus -5.90563 -20.3327 17.9885
lradius 44.4169 -0 0
lwrist 22.1758 0 0
lhand -22.5658 -3.51813 -0.000328734
lfingers 7.12502 -0 0
lthumb 3.86238 26.4264 -0.000328681
rclavicle 5.25785e-014 -7.15625e-015 0
rhumerus -8.34319 -0.791131 -28.1932
rradius 99.1552 -0 0
rwrist -10.119 0 0
rhand -25.7472 -32.6381 -0.0025263
rfingers 7.12502 -0 0
rthumb 0.789907 -62.6158 -0.00243841
718
root 5.3838 21.3311 8.44026 4.5462 -34.3817 -0.0367025
lfemur -31.4233 -16.5212 7.15352
ltibia 53.9306 -0 0
lfoot 9.13871 -12.5222 -0.0683047
ltoes 28.5645 -0 0
rfemur -33.7178 -5.94584 -4.8422
rtibia 108.273 -0 0
rfoot 23.4755 -19.4109 0.183462
rtoes 44.0528 -0 0
lowerback 4.9494 0.315711 -1.36446
upperback -1.61181 0.249109 -1.53625
thorax -4.42179 0.134241 -0.796543
lowerneck -7.15835 -6.75102 -2.60614
upperneck -0.832412 -8.93486 4.74909
head 1.30366 -4.41501 1.61794
lclavicle 5.25785e-014 -7.15625e-015 0
lhumerus -8.2397 -20.7696 18.7641
lradius 44.5855 -0 0
lwrist 22.082 0 0
lhand -22.4823 -3.56321 -0.000591722
lfingers 7.12502 -0 0
lthumb 3.94308 26.3798 -0.000591628
rclavicle 5.25785e-014 -7.15625e-015 0
rhumerus -6.62408 -0.461166 -28.4271
rradius 98.9683 -0 0
rwrist -10.0642 0 0
rhand -25.8588 -32.3787 -0.00454741
rfingers 7.12502 -0 0
rthumb 0.682106 -62.3566 -0.00438922
